<?xml version="1.0" encoding="UTF-8" standalone="no"?>
<svg width="31px" height="35px" viewBox="0 0 31 35" version="1.1" xmlns="http://www.w3.org/2000/svg" xmlns:xlink="http://www.w3.org/1999/xlink" xmlns:sketch="http://www.bohemiancoding.com/sketch/ns">
    <title>Untitled 5</title>
    <description>Created with Sketch (http://www.bohemiancoding.com/sketch)</description>
    <defs></defs>
    <g id="Page-1" stroke="none" stroke-width="1" fill="none" fill-rule="evenodd" sketch:type="MSPage">
        <g id="path856-+-path858" sketch:type="MSLayerGroup" fill="#FFFFFF">
            <path d="M29.2968755,1.38948158e-15 C29.0907869,1.38948158e-15 28.7836748,0.0692577914 28.4684814,0.391104294 L15.0767783,13.8842025 L1.69315759,0.391104294 C1.38604552,0.0692577914 1.07085103,0 0.864763448,0 C0.355603448,0 0,0.399251779 0,0.977760736 L0,4.98657975 C0,5.39397902 0.161637931,5.64656773 0.379849655,5.87063816 C0.561692069,6.05396804 12.6845369,18.2107932 12.87042,18.3941231 C13.1128779,18.6385633 13.5169717,18.8096719 13.8604531,18.8096719 L16.3011859,18.8096719 C16.6365848,18.8096719 17.0528017,18.6385633 17.2952586,18.3941231 C17.4771021,18.2107932 29.5999469,6.05396804 29.7817893,5.87063816 C30,5.64656773 30.1616379,5.39397902 30.1616379,4.98657975 L30.1616379,0.977760736 C30.1616379,0.399251779 29.8100752,1.8526421e-15 29.2968755,1.8526421e-15" id="path856" sketch:type="MSShapeGroup"></path>
            <path d="M29.2968755,15.2269939 C29.0907869,15.2269939 28.7836748,15.3003233 28.4684814,15.6262456 L15.0767783,29.1193438 L1.69315759,15.6262456 C1.38604552,15.3003254 1.07085103,15.2269939 0.864763448,15.2269939 C0.355603448,15.2269939 0,15.6343942 0,16.2129021 L0,20.2135736 C0,20.6209739 0.161637931,20.8817101 0.379849655,21.1017058 C0.561692069,21.2850367 12.6845369,33.4459356 12.87042,33.6292655 C13.1128779,33.8737056 13.5169717,34.0407395 13.8604531,34.0407395 L16.3011859,34.0407395 C16.6365848,34.0407395 17.0528017,33.8737056 17.2952586,33.6292655 C17.4771021,33.4459356 29.5999469,21.2850367 29.7817893,21.1017058 C30,20.8817101 30.1616379,20.6209739 30.1616379,20.2135736 L30.1616379,16.2129021 C30.1616379,15.6343942 29.8100752,15.2269939 29.2968755,15.2269939" id="path858" sketch:type="MSShapeGroup"></path>
        </g>
    </g>
</svg>