<?xml version="1.0" encoding="utf-8"?>
<!-- Generator: Adobe Illustrator 17.0.0, SVG Export Plug-In . SVG Version: 6.00 Build 0)  -->
<!DOCTYPE svg PUBLIC "-//W3C//DTD SVG 1.1//EN" "http://www.w3.org/Graphics/SVG/1.1/DTD/svg11.dtd">
<svg version="1.1" id="Layer_1" xmlns="http://www.w3.org/2000/svg" xmlns:xlink="http://www.w3.org/1999/xlink" x="0px" y="0px"
	 width="24px" height="32.666px" viewBox="0 0 24 32.666" enable-background="new 0 0 24 32.666" xml:space="preserve">
<g>
	<path fill="#3EB6E2" d="M22.121,18.449h-0.013C23.3,16.586,24,14.376,24,12c0-6.628-5.373-12-12-12C5.373,0,0,5.372,0,12
		c0,2.376,0.7,4.586,1.892,6.449H1.879l0.087,0.122c0.121,0.185,0.252,0.36,0.382,0.537L12,32.666l9.652-13.558
		c0.13-0.177,0.261-0.353,0.382-0.537L22.121,18.449z"/>
	<path fill="#3FC7F4" d="M22.034,18.571l0.087-0.122h-0.013C23.3,16.586,24,14.376,24,12c0-6.628-5.373-12-12-12v32.666
		l9.652-13.558C21.782,18.932,21.913,18.756,22.034,18.571z"/>
	<circle fill="#FFFFFF" cx="12" cy="12" r="10"/>
	<path fill="#2B6E8F" d="M17.061,17.06c0.337-0.338,0.873-0.346,1.226-0.034c0.217-0.271,0.409-0.554,0.586-0.845
		c-0.411-0.223-0.585-0.729-0.384-1.161c0.202-0.429,0.701-0.622,1.137-0.452c0.111-0.325,0.205-0.656,0.272-0.991
		c-0.466-0.065-0.805-0.481-0.765-0.958c0.043-0.473,0.446-0.825,0.915-0.814c-0.007-0.342-0.04-0.683-0.091-1.022
		c-0.458,0.093-0.915-0.183-1.039-0.642c-0.123-0.459,0.138-0.929,0.585-1.078c-0.123-0.317-0.269-0.628-0.434-0.932
		c-0.401,0.248-0.926,0.148-1.201-0.243c-0.271-0.388-0.188-0.914,0.176-1.209c-0.113-0.128-0.221-0.258-0.343-0.38
		c-0.123-0.123-0.253-0.232-0.382-0.346c-0.292,0.365-0.819,0.449-1.208,0.178c-0.39-0.274-0.491-0.799-0.245-1.201
		c-0.303-0.166-0.613-0.31-0.931-0.433c-0.148,0.445-0.617,0.707-1.078,0.584c-0.458-0.123-0.733-0.578-0.642-1.038
		c-0.339-0.051-0.681-0.083-1.023-0.091c0.012,0.469-0.339,0.872-0.813,0.914c-0.476,0.042-0.893-0.297-0.96-0.764
		C10.086,4.17,9.755,4.265,9.43,4.375C9.6,4.811,9.407,5.309,8.978,5.511C8.547,5.713,8.042,5.539,7.817,5.127
		C7.527,5.305,7.243,5.496,6.972,5.713c0.313,0.352,0.303,0.889-0.033,1.225C6.601,7.275,6.066,7.285,5.713,6.974
		c-0.217,0.27-0.408,0.554-0.585,0.844c0.411,0.224,0.584,0.729,0.383,1.16S4.811,9.6,4.375,9.43
		c-0.111,0.326-0.205,0.656-0.272,0.992c0.466,0.066,0.805,0.483,0.763,0.958c-0.042,0.474-0.446,0.825-0.913,0.814
		c0.007,0.341,0.039,0.683,0.09,1.023c0.458-0.093,0.915,0.183,1.038,0.641c0.124,0.461-0.138,0.93-0.584,1.078
		c0.124,0.318,0.269,0.628,0.434,0.932c0.401-0.248,0.927-0.146,1.2,0.244c0.273,0.388,0.189,0.914-0.175,1.207
		c0.113,0.129,0.222,0.26,0.344,0.383c0.123,0.122,0.253,0.231,0.382,0.344c0.293-0.365,0.819-0.447,1.207-0.176
		c0.39,0.272,0.492,0.799,0.245,1.2c0.303,0.165,0.613,0.31,0.931,0.435c0.148-0.447,0.618-0.709,1.078-0.586
		c0.458,0.123,0.733,0.58,0.642,1.039c0.339,0.051,0.681,0.083,1.022,0.09c-0.011-0.467,0.34-0.871,0.814-0.914
		c0.476-0.041,0.893,0.297,0.959,0.764c0.335-0.066,0.666-0.161,0.991-0.272c-0.17-0.436,0.021-0.935,0.452-1.136
		c0.431-0.201,0.937-0.027,1.161,0.383c0.29-0.176,0.574-0.367,0.845-0.585C16.715,17.934,16.724,17.398,17.061,17.06z
		 M16.501,14.924l-2.074-2.266c-0.332-0.363-0.332-0.957,0.001-1.32l2.077-2.269C17.659,10.843,17.659,13.148,16.501,14.924z
		 M11.293,12.707c-0.391-0.391-0.391-1.023,0-1.414c0.391-0.391,1.024-0.391,1.414,0c0.391,0.391,0.391,1.023,0,1.414
		C12.316,13.098,11.684,13.098,11.293,12.707z M14.93,7.494l-2.268,2.078c-0.364,0.333-0.958,0.333-1.321,0L9.075,7.499
		C10.851,6.342,13.157,6.34,14.93,7.494z M7.5,9.074l2.074,2.267c0.333,0.362,0.333,0.957-0.001,1.321L7.495,14.93
		C6.341,13.156,6.342,10.85,7.5,9.074z M9.07,16.504l2.268-2.076c0.364-0.334,0.958-0.334,1.321-0.002l2.266,2.074
		C13.15,17.657,10.843,17.658,9.07,16.504z"/>
</g>
</svg>
